<svg xmlns="http://www.w3.org/2000/svg" xmlns:xlink="http://www.w3.org/1999/xlink" width="500" zoomAndPan="magnify" viewBox="0 0 375 149.999998" height="200" preserveAspectRatio="xMidYMid meet" version="1.0"><defs><g/><clipPath id="612ff15d76"><path d="M 51 28.703125 L 62 28.703125 L 62 120.953125 L 51 120.953125 Z M 51 28.703125 " clip-rule="nonzero"/></clipPath><clipPath id="62fac44130"><path d="M 4.976562 59 L 16 59 L 16 91 L 4.976562 91 Z M 4.976562 59 " clip-rule="nonzero"/></clipPath><clipPath id="a5d4d23946"><path d="M 97 59 L 107.726562 59 L 107.726562 91 L 97 91 Z M 97 59 " clip-rule="nonzero"/></clipPath></defs><g fill="#4ab749" fill-opacity="1"><g transform="translate(333.277865, 121.556138)"><g><path d="M 8.75 0.140625 C 7.320312 0.140625 6.039062 -0.171875 4.90625 -0.796875 C 3.769531 -1.421875 2.878906 -2.300781 2.234375 -3.4375 C 1.585938 -4.570312 1.265625 -5.847656 1.265625 -7.265625 C 1.265625 -8.679688 1.585938 -9.953125 2.234375 -11.078125 C 2.878906 -12.203125 3.769531 -13.078125 4.90625 -13.703125 C 6.039062 -14.328125 7.320312 -14.640625 8.75 -14.640625 C 10.007812 -14.640625 11.128906 -14.394531 12.109375 -13.90625 C 13.097656 -13.414062 13.878906 -12.703125 14.453125 -11.765625 L 12.984375 -10.78125 C 12.503906 -11.488281 11.894531 -12.019531 11.15625 -12.375 C 10.425781 -12.738281 9.625 -12.921875 8.75 -12.921875 C 7.707031 -12.921875 6.765625 -12.6875 5.921875 -12.21875 C 5.085938 -11.75 4.4375 -11.082031 3.96875 -10.21875 C 3.5 -9.351562 3.265625 -8.367188 3.265625 -7.265625 C 3.265625 -6.140625 3.5 -5.148438 3.96875 -4.296875 C 4.4375 -3.441406 5.085938 -2.78125 5.921875 -2.3125 C 6.765625 -1.84375 7.707031 -1.609375 8.75 -1.609375 C 9.625 -1.609375 10.425781 -1.78125 11.15625 -2.125 C 11.894531 -2.476562 12.503906 -3.015625 12.984375 -3.734375 L 14.453125 -2.734375 C 13.878906 -1.796875 13.09375 -1.082031 12.09375 -0.59375 C 11.101562 -0.101562 9.988281 0.140625 8.75 0.140625 Z M 8.75 0.140625 "/></g></g></g><g fill="#4ab749" fill-opacity="1"><g transform="translate(350.178393, 121.556138)"><g><path d="M 8.671875 0.140625 C 7.273438 0.140625 6.015625 -0.175781 4.890625 -0.8125 C 3.765625 -1.445312 2.878906 -2.328125 2.234375 -3.453125 C 1.585938 -4.578125 1.265625 -5.847656 1.265625 -7.265625 C 1.265625 -8.679688 1.585938 -9.953125 2.234375 -11.078125 C 2.878906 -12.203125 3.765625 -13.078125 4.890625 -13.703125 C 6.015625 -14.328125 7.273438 -14.640625 8.671875 -14.640625 C 10.078125 -14.640625 11.335938 -14.328125 12.453125 -13.703125 C 13.578125 -13.078125 14.457031 -12.203125 15.09375 -11.078125 C 15.726562 -9.953125 16.046875 -8.679688 16.046875 -7.265625 C 16.046875 -5.847656 15.726562 -4.578125 15.09375 -3.453125 C 14.457031 -2.328125 13.578125 -1.445312 12.453125 -0.8125 C 11.335938 -0.175781 10.078125 0.140625 8.671875 0.140625 Z M 8.671875 -1.609375 C 9.703125 -1.609375 10.628906 -1.84375 11.453125 -2.3125 C 12.273438 -2.78125 12.914062 -3.445312 13.375 -4.3125 C 13.832031 -5.175781 14.0625 -6.160156 14.0625 -7.265625 C 14.0625 -8.367188 13.832031 -9.351562 13.375 -10.21875 C 12.914062 -11.082031 12.273438 -11.75 11.453125 -12.21875 C 10.628906 -12.6875 9.703125 -12.921875 8.671875 -12.921875 C 7.640625 -12.921875 6.710938 -12.6875 5.890625 -12.21875 C 5.078125 -11.75 4.4375 -11.082031 3.96875 -10.21875 C 3.5 -9.351562 3.265625 -8.367188 3.265625 -7.265625 C 3.265625 -6.160156 3.5 -5.175781 3.96875 -4.3125 C 4.4375 -3.445312 5.078125 -2.78125 5.890625 -2.3125 C 6.710938 -1.84375 7.640625 -1.609375 8.671875 -1.609375 Z M 8.671875 -1.609375 "/></g></g></g><g clip-path="url(#612ff15d76)"><path fill="#4ab749" d="M 56.410156 28.710938 C 59.253906 28.710938 61.554688 31.011719 61.554688 33.851562 L 61.554688 116.144531 C 61.554688 118.988281 59.253906 121.289062 56.410156 121.289062 C 53.570312 121.289062 51.269531 118.988281 51.269531 116.144531 L 51.269531 33.851562 C 51.269531 31.011719 53.570312 28.710938 56.410156 28.710938 Z M 56.410156 28.710938 " fill-opacity="1" fill-rule="nonzero"/></g><g clip-path="url(#62fac44130)"><path fill="#4ab749" d="M 10.121094 59.570312 C 12.960938 59.570312 15.265625 61.871094 15.265625 64.710938 L 15.265625 85.285156 C 15.265625 88.125 12.960938 90.429688 10.121094 90.429688 C 7.28125 90.429688 4.976562 88.125 4.976562 85.285156 L 4.976562 64.710938 C 4.976562 61.871094 7.28125 59.570312 10.121094 59.570312 Z M 10.121094 59.570312 " fill-opacity="1" fill-rule="nonzero"/></g><path fill="#4ab749" d="M 30.695312 49.28125 C 30.695312 46.441406 28.390625 44.140625 25.550781 44.140625 C 22.710938 44.140625 20.410156 46.441406 20.410156 49.28125 L 20.410156 100.714844 C 20.410156 103.558594 22.710938 105.859375 25.550781 105.859375 C 28.390625 105.859375 30.695312 103.558594 30.695312 100.714844 Z M 30.695312 49.28125 " fill-opacity="1" fill-rule="nonzero"/><path fill="#4ab749" d="M 40.980469 54.425781 C 43.820312 54.425781 46.125 56.730469 46.125 59.570312 L 46.125 90.429688 C 46.125 93.269531 43.820312 95.574219 40.980469 95.574219 C 38.140625 95.574219 35.839844 93.269531 35.839844 90.429688 L 35.839844 59.570312 C 35.839844 56.730469 38.140625 54.425781 40.980469 54.425781 Z M 40.980469 54.425781 " fill-opacity="1" fill-rule="nonzero"/><g clip-path="url(#a5d4d23946)"><path fill="#4ab749" d="M 97.558594 64.710938 C 97.558594 61.871094 99.859375 59.570312 102.703125 59.570312 C 105.542969 59.570312 107.84375 61.871094 107.84375 64.710938 L 107.84375 85.285156 C 107.84375 88.125 105.542969 90.429688 102.703125 90.429688 C 99.859375 90.429688 97.558594 88.125 97.558594 85.285156 Z M 97.558594 64.710938 " fill-opacity="1" fill-rule="nonzero"/></g><path fill="#4ab749" d="M 87.273438 44.140625 C 90.113281 44.140625 92.414062 46.441406 92.414062 49.28125 L 92.414062 100.714844 C 92.414062 103.558594 90.113281 105.859375 87.273438 105.859375 C 84.429688 105.859375 82.128906 103.558594 82.128906 100.714844 L 82.128906 49.28125 C 82.128906 46.441406 84.429688 44.140625 87.273438 44.140625 Z M 87.273438 44.140625 " fill-opacity="1" fill-rule="nonzero"/><path fill="#4ab749" d="M 76.984375 59.570312 C 76.984375 56.730469 74.683594 54.425781 71.84375 54.425781 C 69 54.425781 66.699219 56.730469 66.699219 59.570312 L 66.699219 90.429688 C 66.699219 93.269531 69 95.574219 71.84375 95.574219 C 74.683594 95.574219 76.984375 93.269531 76.984375 90.429688 Z M 76.984375 59.570312 " fill-opacity="1" fill-rule="nonzero"/><g fill="#ffffff" fill-opacity="1"><g transform="translate(115.565308, 72.584473)"><g><path d="M 14.1875 -36.109375 L 0.234375 -36.109375 L 0.234375 -39.734375 L 32.359375 -39.734375 L 32.359375 -36.109375 L 18.390625 -36.109375 L 18.390625 0 L 14.1875 0 Z M 14.1875 -36.109375 "/></g></g></g><g fill="#ffffff" fill-opacity="1"><g transform="translate(148.148352, 72.584473)"><g><path d="M 20.828125 -30.078125 C 24.578125 -30.078125 27.554688 -28.988281 29.765625 -26.8125 C 31.984375 -24.644531 33.09375 -21.476562 33.09375 -17.3125 L 33.09375 0 L 29.0625 0 L 29.0625 -16.921875 C 29.0625 -20.023438 28.285156 -22.390625 26.734375 -24.015625 C 25.179688 -25.640625 22.96875 -26.453125 20.09375 -26.453125 C 16.875 -26.453125 14.328125 -25.492188 12.453125 -23.578125 C 10.585938 -21.671875 9.65625 -19.035156 9.65625 -15.671875 L 9.65625 0 L 5.625 0 L 5.625 -42.125 L 9.65625 -42.125 L 9.65625 -24.640625 C 10.75 -26.378906 12.257812 -27.71875 14.1875 -28.65625 C 16.125 -29.601562 18.335938 -30.078125 20.828125 -30.078125 Z M 20.828125 -30.078125 "/></g></g></g><g fill="#ffffff" fill-opacity="1"><g transform="translate(186.578182, 72.584473)"><g><path d="M 31.625 -13.6875 L 6.640625 -13.6875 C 6.867188 -10.582031 8.0625 -8.070312 10.21875 -6.15625 C 12.375 -4.25 15.097656 -3.296875 18.390625 -3.296875 C 20.242188 -3.296875 21.945312 -3.625 23.5 -4.28125 C 25.050781 -4.945312 26.394531 -5.921875 27.53125 -7.203125 L 29.796875 -4.59375 C 28.472656 -3.007812 26.816406 -1.800781 24.828125 -0.96875 C 22.847656 -0.132812 20.664062 0.28125 18.28125 0.28125 C 15.21875 0.28125 12.5 -0.367188 10.125 -1.671875 C 7.757812 -2.984375 5.914062 -4.789062 4.59375 -7.09375 C 3.269531 -9.40625 2.609375 -12.015625 2.609375 -14.921875 C 2.609375 -17.835938 3.242188 -20.445312 4.515625 -22.75 C 5.785156 -25.0625 7.523438 -26.859375 9.734375 -28.140625 C 11.953125 -29.429688 14.441406 -30.078125 17.203125 -30.078125 C 19.960938 -30.078125 22.4375 -29.429688 24.625 -28.140625 C 26.820312 -26.859375 28.546875 -25.070312 29.796875 -22.78125 C 31.046875 -20.5 31.671875 -17.878906 31.671875 -14.921875 Z M 17.203125 -26.625 C 14.328125 -26.625 11.910156 -25.703125 9.953125 -23.859375 C 8.003906 -22.023438 6.898438 -19.632812 6.640625 -16.6875 L 27.8125 -16.6875 C 27.550781 -19.632812 26.445312 -22.023438 24.5 -23.859375 C 22.550781 -25.703125 20.117188 -26.625 17.203125 -26.625 Z M 17.203125 -26.625 "/></g></g></g><g fill="#ffffff" fill-opacity="1"><g transform="translate(115.565308, 121.591032)"><g><path d="M 44.28125 -39.734375 L 27.25 0 L 16.171875 0 L -0.796875 -39.734375 L 11.359375 -39.734375 L 22.140625 -13.84375 L 33.15625 -39.734375 Z M 44.28125 -39.734375 "/></g></g></g><g fill="#ffffff" fill-opacity="1"><g transform="translate(159.038404, 121.591032)"><g><path d="M 18.90625 0.515625 C 15.613281 0.515625 12.640625 -0.164062 9.984375 -1.53125 C 7.335938 -2.894531 5.265625 -4.785156 3.765625 -7.203125 C 2.273438 -9.628906 1.53125 -12.375 1.53125 -15.4375 C 1.53125 -18.46875 2.273438 -21.191406 3.765625 -23.609375 C 5.265625 -26.035156 7.328125 -27.921875 9.953125 -29.265625 C 12.585938 -30.609375 15.570312 -31.28125 18.90625 -31.28125 C 22.226562 -31.28125 25.210938 -30.609375 27.859375 -29.265625 C 30.515625 -27.921875 32.578125 -26.046875 34.046875 -23.640625 C 35.523438 -21.234375 36.265625 -18.5 36.265625 -15.4375 C 36.265625 -12.375 35.523438 -9.628906 34.046875 -7.203125 C 32.578125 -4.785156 30.515625 -2.894531 27.859375 -1.53125 C 25.210938 -0.164062 22.226562 0.515625 18.90625 0.515625 Z M 18.90625 -8.0625 C 20.789062 -8.0625 22.335938 -8.710938 23.546875 -10.015625 C 24.765625 -11.328125 25.375 -13.132812 25.375 -15.4375 C 25.375 -17.707031 24.765625 -19.484375 23.546875 -20.765625 C 22.335938 -22.054688 20.789062 -22.703125 18.90625 -22.703125 C 17.007812 -22.703125 15.457031 -22.054688 14.25 -20.765625 C 13.039062 -19.484375 12.4375 -17.707031 12.4375 -15.4375 C 12.4375 -13.132812 13.039062 -11.328125 14.25 -10.015625 C 15.457031 -8.710938 17.007812 -8.0625 18.90625 -8.0625 Z M 18.90625 -8.0625 "/></g></g></g><g fill="#ffffff" fill-opacity="1"><g transform="translate(196.836162, 121.591032)"><g><path d="M 19.1875 0.515625 C 15.78125 0.515625 12.734375 -0.164062 10.046875 -1.53125 C 7.359375 -2.894531 5.265625 -4.785156 3.765625 -7.203125 C 2.273438 -9.628906 1.53125 -12.375 1.53125 -15.4375 C 1.53125 -18.5 2.273438 -21.234375 3.765625 -23.640625 C 5.265625 -26.046875 7.359375 -27.921875 10.046875 -29.265625 C 12.734375 -30.609375 15.78125 -31.28125 19.1875 -31.28125 C 22.664062 -31.28125 25.671875 -30.53125 28.203125 -29.03125 C 30.742188 -27.539062 32.546875 -25.46875 33.609375 -22.8125 L 25.265625 -18.5625 C 23.859375 -21.320312 21.8125 -22.703125 19.125 -22.703125 C 17.195312 -22.703125 15.597656 -22.054688 14.328125 -20.765625 C 13.066406 -19.484375 12.4375 -17.707031 12.4375 -15.4375 C 12.4375 -13.132812 13.066406 -11.328125 14.328125 -10.015625 C 15.597656 -8.710938 17.195312 -8.0625 19.125 -8.0625 C 21.8125 -8.0625 23.859375 -9.441406 25.265625 -12.203125 L 33.609375 -7.953125 C 32.546875 -5.296875 30.742188 -3.21875 28.203125 -1.71875 C 25.671875 -0.226562 22.664062 0.515625 19.1875 0.515625 Z M 19.1875 0.515625 "/></g></g></g><g fill="#ffffff" fill-opacity="1"><g transform="translate(231.058454, 121.591032)"><g><path d="M 16.578125 -31.28125 C 21.679688 -31.28125 25.578125 -30.113281 28.265625 -27.78125 C 30.953125 -25.457031 32.296875 -21.894531 32.296875 -17.09375 L 32.296875 0 L 22.25 0 L 22.25 -3.96875 C 20.695312 -0.976562 17.671875 0.515625 13.171875 0.515625 C 10.785156 0.515625 8.722656 0.0976562 6.984375 -0.734375 C 5.242188 -1.566406 3.925781 -2.691406 3.03125 -4.109375 C 2.144531 -5.535156 1.703125 -7.15625 1.703125 -8.96875 C 1.703125 -11.882812 2.816406 -14.144531 5.046875 -15.75 C 7.285156 -17.363281 10.734375 -18.171875 15.390625 -18.171875 L 21.515625 -18.171875 C 21.328125 -21.421875 19.148438 -23.046875 14.984375 -23.046875 C 13.503906 -23.046875 12.007812 -22.804688 10.5 -22.328125 C 8.988281 -21.859375 7.703125 -21.207031 6.640625 -20.375 L 3.015625 -27.703125 C 4.710938 -28.835938 6.78125 -29.71875 9.21875 -30.34375 C 11.664062 -30.96875 14.117188 -31.28125 16.578125 -31.28125 Z M 16.171875 -6.296875 C 17.421875 -6.296875 18.519531 -6.597656 19.46875 -7.203125 C 20.414062 -7.816406 21.097656 -8.707031 21.515625 -9.875 L 21.515625 -12.546875 L 16.859375 -12.546875 C 13.710938 -12.546875 12.140625 -11.503906 12.140625 -9.421875 C 12.140625 -8.472656 12.5 -7.710938 13.21875 -7.140625 C 13.945312 -6.578125 14.929688 -6.296875 16.171875 -6.296875 Z M 16.171875 -6.296875 "/></g></g></g><g fill="#ffffff" fill-opacity="1"><g transform="translate(266.699587, 121.591032)"><g><path d="M 3.46875 -42.125 L 14.25 -42.125 L 14.25 0 L 3.46875 0 Z M 3.46875 -42.125 "/></g></g></g><g fill="#ffffff" fill-opacity="1"><g transform="translate(284.46339, 121.591032)"><g><path d="M 14.640625 0.515625 C 12.066406 0.515625 9.53125 0.222656 7.03125 -0.359375 C 4.539062 -0.953125 2.535156 -1.722656 1.015625 -2.671875 L 4.25 -10.046875 C 5.65625 -9.171875 7.320312 -8.476562 9.25 -7.96875 C 11.175781 -7.457031 13.085938 -7.203125 14.984375 -7.203125 C 16.722656 -7.203125 17.960938 -7.378906 18.703125 -7.734375 C 19.441406 -8.097656 19.8125 -8.625 19.8125 -9.3125 C 19.8125 -9.988281 19.363281 -10.46875 18.46875 -10.75 C 17.582031 -11.039062 16.175781 -11.316406 14.25 -11.578125 C 11.789062 -11.878906 9.695312 -12.273438 7.96875 -12.765625 C 6.25 -13.265625 4.765625 -14.175781 3.515625 -15.5 C 2.265625 -16.820312 1.640625 -18.675781 1.640625 -21.0625 C 1.640625 -23.03125 2.226562 -24.78125 3.40625 -26.3125 C 4.582031 -27.84375 6.296875 -29.050781 8.546875 -29.9375 C 10.796875 -30.832031 13.488281 -31.28125 16.625 -31.28125 C 18.863281 -31.28125 21.078125 -31.050781 23.265625 -30.59375 C 25.460938 -30.144531 27.300781 -29.503906 28.78125 -28.671875 L 25.546875 -21.34375 C 22.816406 -22.851562 19.863281 -23.609375 16.6875 -23.609375 C 14.988281 -23.609375 13.738281 -23.410156 12.9375 -23.015625 C 12.144531 -22.617188 11.75 -22.097656 11.75 -21.453125 C 11.75 -20.734375 12.179688 -20.234375 13.046875 -19.953125 C 13.921875 -19.671875 15.363281 -19.378906 17.375 -19.078125 C 19.90625 -18.691406 22.003906 -18.253906 23.671875 -17.765625 C 25.335938 -17.273438 26.785156 -16.375 28.015625 -15.0625 C 29.242188 -13.757812 29.859375 -11.9375 29.859375 -9.59375 C 29.859375 -7.664062 29.269531 -5.929688 28.09375 -4.390625 C 26.925781 -2.859375 25.195312 -1.65625 22.90625 -0.78125 C 20.613281 0.0820312 17.859375 0.515625 14.640625 0.515625 Z M 14.640625 0.515625 "/></g></g></g><g fill="#ffffff" fill-opacity="1"><g transform="translate(315.507495, 121.591032)"><g><path d="M 8 0.515625 C 6.1875 0.515625 4.65625 -0.0859375 3.40625 -1.296875 C 2.15625 -2.515625 1.53125 -4.050781 1.53125 -5.90625 C 1.53125 -7.789062 2.144531 -9.320312 3.375 -10.5 C 4.601562 -11.675781 6.144531 -12.265625 8 -12.265625 C 9.894531 -12.265625 11.445312 -11.675781 12.65625 -10.5 C 13.863281 -9.320312 14.46875 -7.789062 14.46875 -5.90625 C 14.46875 -4.050781 13.851562 -2.515625 12.625 -1.296875 C 11.394531 -0.0859375 9.851562 0.515625 8 0.515625 Z M 8 0.515625 "/></g></g></g></svg>